<?xml version="1.0" encoding="UTF-8"?>
<!DOCTYPE svg PUBLIC "-//W3C//DTD SVG 1.1//EN" "http://www.w3.org/Graphics/SVG/1.1/DTD/svg11.dtd">
<!-- Creator: CorelDRAW 2020 (64 Bit) -->
<svg xmlns="http://www.w3.org/2000/svg" xml:space="preserve" width="180.081mm" height="174.16mm" version="1.1" style="shape-rendering:geometricPrecision; text-rendering:geometricPrecision; image-rendering:optimizeQuality; fill-rule:evenodd; clip-rule:evenodd"
viewBox="0 0 19982.25 19325.18"
 xmlns:xlink="http://www.w3.org/1999/xlink"
 xmlns:xodm="http://www.corel.com/coreldraw/odm/2003">
 <defs>
  <style type="text/css">
   <![CDATA[
    .fil0 {fill:white}
   ]]>
  </style>
 </defs>
 <g id="Camada_x0020_1">
  <metadata id="CorelCorpID_0Corel-Layer"/>
  <g id="_2305797372640">
   <path class="fil0" d="M-0 9911.56l0 1.91 0 1.92 0 1.91 0 1.91 0 1.92 0 1.91 0 1.91 0 1.91 0 1.92 0 1.91 0 1.91 0 105.95 17.42 362.92c8.94,79.96 4.99,161.88 11.28,242.38l49.21 467.5c9.17,69.73 23.18,158.13 33.19,229.87 121.19,867.9 439.93,1984.84 831.51,2766.72l215.96 422.89c17.39,31.06 27.74,58.47 44.38,87.15 15.35,26.45 31.24,54.8 48.38,83.14 80.73,133.47 150.86,271.11 236.86,401.98 35.73,54.37 62.07,103.07 97.62,156.05 172.6,257.12 342.61,518.13 536.12,760.37 38.6,48.31 73.58,92.92 112.7,140.96 17.92,22.01 36.48,44.6 55.6,66.52l831.01 850.67c25.65,25.4 40.62,31.44 66.13,56l328.45 310.4c195.52,194.58 665.19,534.74 875.32,674.83 206.99,137.99 419.9,264.3 635.57,388.47l332.3 184.42c196.26,117.52 669.13,325.26 884.49,411.99 236.78,95.36 554.17,212.03 821.4,212.03 351.21,0 453.43,-278.79 469.79,-582.43 6.79,-126.18 -9.6,-228.64 -9.45,-347.65 0.59,-477.22 -9.39,-923.78 -9.39,-1399.84 -160.94,37.49 -632.19,85.98 -798.44,84.66 -101.71,-0.81 -181.87,9.28 -291.35,9.28 -681.7,0 -1250.3,-144.99 -1758.23,-552.89 -23.48,-18.85 -33.23,-33.92 -58.94,-53.81 -67.94,-52.54 -117.59,-118.77 -177.05,-179.95l-98.25 -127.22c-118.6,-164.3 -311.18,-586.44 -400.29,-764.68 -114.89,-229.79 -249.8,-429.13 -404.81,-628.62 -54.37,-69.98 -115.78,-120.43 -177.06,-179.95 -119.25,-115.83 -263.64,-201.83 -407.92,-287.29 -123.15,-72.95 -228.7,-166.32 -263.89,-309.34 -9.31,-37.84 -19.64,-66.83 3.81,-94.75 24.61,-29.32 105.1,-72.45 146.9,-88.41 256.01,-97.79 588.02,2.52 810.97,95.36 326.21,135.84 541.36,326.62 762.79,580.68 156.88,180 284.45,387.08 427.53,577.7l149.88 188.35c111.34,120.33 224.93,225.34 360.39,316.03 619.48,414.74 1409.39,360.85 2084.12,94.26 110.78,-43.76 115.82,-76.33 168.41,-254.36 33.26,-112.62 57.67,-225.33 89.41,-333.35 16.86,-57.33 29.19,-101.96 50.71,-155.97 122.7,-307.87 402.82,-555.08 410.78,-650.84 -230.18,0 -770.8,-99.48 -977.17,-150.22 -155.78,-38.29 -294.56,-73.04 -446.88,-116.8 -686.16,-197.17 -1333.38,-512.8 -1833.61,-1013.03 -24.5,-24.5 -48.01,-45.12 -70.39,-70.53 -26.71,-30.34 -35.49,-44.94 -65.94,-74.98 -93.72,-92.4 -176.02,-206.16 -251.17,-312.51l-168.71 -254.06c-283.52,-471.86 -490.61,-992.91 -597.8,-1534.83 -155.11,-784.19 -166.72,-1571.17 28.05,-2350.44 41.86,-167.41 88.44,-324.2 147.89,-472.17 72.56,-180.56 149.44,-359.37 248.22,-522.17 77.96,-128.47 159.52,-249.78 252.24,-367.82l219.62 -250.36c41.68,-49.44 -13.28,-180.89 -28.1,-240.13 -120.39,-481.55 -139.02,-560.35 -139.02,-1072.91 0,-361.14 99.74,-933.89 259.92,-1252.66 71.33,-141.94 52.24,-109.6 322.57,-109.6 416.02,0 830.58,168.92 1194.49,318.07 199.8,81.89 395.16,184.42 581.55,292.16 180.62,104.42 366.38,205.21 533.61,330.71 147.68,110.82 304.39,49.28 463.61,9.72 1154.15,-286.75 2482.5,-338.05 3659.53,-140.06 213.28,35.87 447.25,73.42 647.58,132.19 57.88,16.98 267.51,73.72 321.54,70.77 133.94,-7.31 375.4,-196.71 505.57,-274.35 253.96,-151.47 383.51,-214.67 641.82,-344.64 221.54,-111.47 461.25,-207.37 702.56,-274.5 345.07,-96.02 496.21,-120.08 866.38,-120.08 83.77,0 83.84,44.2 112.87,103.21 169.18,343.93 262.91,898.78 262.91,1287.23 0,480.05 -25.28,589.62 -137.15,1037.2 -10.99,43.91 -20.57,82.74 -30.07,120.26 -11.37,44.94 -32.01,84.94 -4.21,122.11l404.42 526.11c103.88,155.81 203.02,320.46 277.04,493.33 118.67,277.15 195.44,537.21 253.4,836.41 128.41,662.79 82.23,1581.91 -66.36,2212.11 -18.69,79.26 -32.09,159.1 -54.88,236.35 -23.55,79.86 -40.78,147.31 -63.68,227.56 -94.25,330.14 -255.91,710.88 -446.99,999.81 -75.59,114.29 -150.49,229.66 -236.11,336.98 -89.58,112.27 -171.96,207.3 -273.57,308.91 -423.97,423.97 -1025.32,756.08 -1633.51,959.47 -462.9,154.81 -939.53,253.73 -1424.04,323.4 -66.28,9.53 -186.61,33.2 -256.48,34.76 33.79,63.85 80.36,119.65 123.49,177.14 140.78,187.66 247.19,365.72 338.21,591.87 205.24,509.89 177.14,1144.66 177.14,1720.62 0,580.06 -18.79,1148.27 -18.79,1728.65 0,175.02 28,427.18 76.35,553.09 77.72,202.35 200.53,283.04 421.57,283.04 143.02,0 305.85,-50.6 420.63,-86.69 249.4,-78.46 497.29,-192.96 734.82,-298.61l172.37 -81.29c480.26,-241.45 947.48,-497.86 1392.99,-796.01 230.18,-154.05 456.68,-312.06 671.97,-483.6l139.69 -113.97c23.8,-18.5 46.77,-37.83 72.26,-59.28l404.49 -365.89c28.18,-28.51 42.2,-36.23 70.43,-61.1 113.5,-99.94 207.43,-217.73 314.88,-323.97l418.59 -483.31c41.27,-50.97 77.46,-93.96 116.49,-146.57 37.87,-51.06 71.14,-91.68 110.05,-143.61 261.68,-349.11 491.64,-716.7 709.57,-1094.25 389.07,-674.06 675.88,-1445.62 894.07,-2187.43 349.59,-1188.56 460.29,-2665.91 306.17,-3897.28 -44.61,-356.34 -102.3,-733.54 -183.37,-1056.76 -43.3,-172.64 -79.19,-327.54 -125.98,-494.07 -152.1,-541.4 -352.17,-1071.25 -602.44,-1567.78 -18.6,-36.88 -27.22,-68.63 -47.63,-102.68 -59.22,-98.83 -106.02,-206.9 -162.25,-307.5 -146.71,-262.53 -299.01,-522.8 -472.71,-767.41 -202.07,-284.55 -406.47,-566.72 -632.3,-833.29l-718.24 -766.15c-14.05,-14.14 -23.02,-24.61 -37.66,-37.49l-451.03 -403.89c-137.24,-122.34 -285.96,-236.46 -433.01,-346.77l-544.38 -385.72c-187.87,-125.23 -383.43,-236.58 -576.75,-353.33 -261.06,-157.64 -546.48,-290.32 -824.8,-415.33 -1298.08,-583.07 -2682.22,-864.16 -4190.25,-864.16 -249.72,0 -492.95,10.41 -732.24,28.74 -324.7,24.88 -654.02,70.12 -966.99,122.8 -338.52,56.99 -678.51,136.55 -1007.58,232.54 -462.54,134.91 -930.19,307.49 -1361.02,499.15l-209.94 100.09c-72.62,36.32 -134.06,67.03 -206.68,103.34 -469.28,234.64 -918.94,517.83 -1341.79,828.42 -191.67,140.78 -382.13,286.74 -560.04,445.2 -18.7,16.66 -23.27,16.54 -41.97,33.2l-366.49 328.74c-122.38,107.77 -232.14,232.31 -347.81,347.39l-295.91 324.15c-244.18,262.46 -466.79,582.85 -680.09,870.05 -213.95,288.07 -420.31,647.37 -593.46,956.7 -19.78,35.35 -30.56,64.61 -50.34,99.97 -73.4,131.12 -151.95,272.31 -208.39,411.68 -70.14,173.25 -161.2,356.28 -236.18,543.58 -59.22,147.94 -116.55,298.03 -167.91,452.15 -102.46,307.47 -205.57,623.55 -279.08,961.05 -77.54,356.02 -136.06,691.29 -185.34,1054.78 -48.49,357.67 -72.28,816.23 -72.28,1167.84z"/>
   <path class="fil0" d="M6266.35 16262.46c125.31,60.13 155.4,65.77 272.46,65.77 87.9,0 132.79,-103.29 150.31,-178.51 -100.83,-150.58 -422.77,-223.11 -422.77,112.74z"/>
   <path class="fil0" d="M7046.13 16177.91c80.13,18.67 62.85,46.98 197.29,46.98 279.64,0 279.64,-300.64 0,-300.64 -68.65,0 -126.89,27.22 -156.14,69.35 -34.04,49.03 -41.16,104.57 -41.16,184.31z"/>
   <path class="fil0" d="M5712.06 16206.09c210.22,0 217.77,-300.63 -75.15,-300.63 -35.08,0 -241.47,42.07 -178.54,168.67 40.42,81.34 131.7,131.96 253.69,131.96z"/>
   <path class="fil0" d="M4810.16 15520.26c0,107.23 -13.99,191.43 89.7,257.91 61.64,39.51 152.7,42.73 239.11,42.73 62.18,-423.29 -328.82,-353.58 -328.82,-300.64z"/>
   <path class="fil0" d="M4349.81 14937.79c-8.83,106.19 -102.82,310.03 272.45,310.03 0,-248.97 6.96,-375.12 -272.45,-310.03z"/>
   <path class="fil0" d="M3927.04 14496.24c0,48.37 34.88,94.82 56,122.5 100.08,131.1 177.52,51.41 235.24,46.6 0,-230.16 -66.89,-253.66 -216.09,-253.66 -29.03,0 -75.15,66.43 -75.15,84.55z"/>
   <path class="fil0" d="M3523.06 14092.25c14.13,60.61 25.84,145.16 74.83,169.69 27.33,13.68 197.62,-0.81 197.62,-28.77 0,-65.33 -42.29,-143.36 -85.93,-167.8 -66.81,-37.42 -135.83,-7.07 -186.53,26.88z"/>
  </g>
 </g>
</svg>
