<?xml version="1.0" encoding="UTF-8"?>
<!DOCTYPE svg PUBLIC "-//W3C//DTD SVG 1.1//EN" "http://www.w3.org/Graphics/SVG/1.1/DTD/svg11.dtd">
<!-- Creator: CorelDRAW 2020 (64 Bit) -->
<svg xmlns="http://www.w3.org/2000/svg" xml:space="preserve" width="231.009mm" height="50mm" version="1.1" style="shape-rendering:geometricPrecision; text-rendering:geometricPrecision; image-rendering:optimizeQuality; fill-rule:evenodd; clip-rule:evenodd"
viewBox="0 0 4992.49 1080.58"
 xmlns:xlink="http://www.w3.org/1999/xlink"
 xmlns:xodm="http://www.corel.com/coreldraw/odm/2003">
 <defs>
  <style type="text/css">
   <![CDATA[
    .fil2 {fill:#0065A9;fill-rule:nonzero}
    .fil3 {fill:#007ACC;fill-rule:nonzero}
    .fil1 {fill:#00979C;fill-rule:nonzero}
    .fil4 {fill:#1F9CF0;fill-rule:nonzero}
    .fil5 {fill:#52218A;fill-rule:nonzero}
    .fil6 {fill:#6C33AF;fill-rule:nonzero}
    .fil7 {fill:#854CC7;fill-rule:nonzero}
    .fil0 {fill:#AAC148;fill-rule:nonzero}
    .fil8 {fill:#B179F1;fill-rule:nonzero}
   ]]>
  </style>
 </defs>
 <g id="Camada_x0020_1">
  <metadata id="CorelCorpID_0Corel-Layer"/>
  <g id="_2251496711984">
   <g>
    <path class="fil0" d="M728.13 356.75l-548.16 0c-12.2,0 -22.08,9.88 -22.08,22.08l0 459.68c0,12.19 9.88,22.08 22.08,22.08l97.72 0 0 154.91c0,35.94 29.14,65.08 65.08,65.08l0 0c35.94,0 65.08,-29.14 65.08,-65.08l0 -154.91 91.03 0 0 154.91c0,35.94 29.14,65.08 65.08,65.08l0 0c35.94,0 65.08,-29.14 65.08,-65.08l0 -154.91 99.08 0c12.19,0 22.08,-9.88 22.08,-22.08l0 -459.68c-0,-12.19 -9.89,-22.08 -22.08,-22.08z"/>
    <path class="fil0" d="M65.08 356.64l0 0c-35.94,0 -65.08,29.14 -65.08,65.08l0 264.34c0,35.94 29.14,65.08 65.08,65.08l0 0c35.94,0 65.08,-29.14 65.08,-65.08l-0 -264.34c-0,-35.94 -29.14,-65.08 -65.08,-65.08z"/>
    <path class="fil0" d="M843.01 356.64l0 0c-35.94,0 -65.08,29.14 -65.08,65.08l0 264.34c0,35.94 29.14,65.08 65.08,65.08l0 0c35.94,0 65.08,-29.14 65.08,-65.08l0 -264.34c0,-35.94 -29.14,-65.08 -65.08,-65.08z"/>
    <path class="fil0" d="M184.4 324.51l538 0c14.04,0 24.5,-12.93 21.62,-26.66 -17.8,-84.82 -71.8,-156.3 -145.07,-197.59l45.99 -82.98c3.11,-5.62 1.08,-12.7 -4.54,-15.81 -5.63,-3.12 -12.7,-1.08 -15.81,4.54l-46.34 83.61c-37.95,-17.61 -80.25,-27.45 -124.85,-27.45 -44.6,0 -86.9,9.84 -124.85,27.45l-46.34 -83.61c-3.11,-5.62 -10.19,-7.65 -15.81,-4.54 -5.62,3.11 -7.65,10.19 -4.53,15.81l45.99 82.98c-73.27,41.3 -127.28,112.77 -145.07,197.59 -2.89,13.74 7.58,26.66 21.62,26.66zm429.53 -123.67c0,13.82 -11.2,25.02 -25.02,25.02 -13.82,0 -25.02,-11.2 -25.02,-25.02 0,-13.82 11.2,-25.02 25.02,-25.02 13.82,0 25.02,11.2 25.02,25.02zm-296.05 -25.02c13.81,0 25.02,11.2 25.02,25.02 0,13.81 -11.2,25.02 -25.02,25.02 -13.82,0 -25.02,-11.2 -25.02,-25.02 0,-13.82 11.2,-25.02 25.02,-25.02z"/>
   </g>
   <g id="arduino-svgrepo-com.svg">
    <g>
     <path class="fil1" d="M1266.8 724.29l-55.62 181.55 43.77 0 10.04 -33.83 54.25 0 9.77 33.83 47.59 0 -55.61 -181.55 -54.18 0 0 0zm9.18 111.2l16.52 -56.46 16.34 56.46 -32.86 0 0 0z"/>
     <path class="fil1" d="M1481.17 823.01c-0.66,-0.7 -1.33,-1.37 -2.01,-1.99 1.37,-0.52 2.7,-1.07 4.01,-1.67 5.3,-2.43 9.94,-5.69 13.79,-9.66 3.9,-4.01 6.96,-8.84 9.1,-14.36 2.12,-5.45 3.19,-11.72 3.19,-18.62 0,-9.5 -1.72,-17.72 -5.09,-24.44 -3.41,-6.79 -8.35,-12.39 -14.67,-16.63 -6.13,-4.11 -13.59,-7.08 -22.17,-8.82 -8.25,-1.67 -17.54,-2.53 -27.6,-2.53l-56.77 0 0 181.55 43.54 0 0 -70.94 1.29 0c4.76,0 8.73,1.05 12.14,3.21 3.38,2.14 5.96,5.3 7.93,9.67l26.32 58.06 50.66 0 -31.97 -64.76c-3.87,-7.86 -7.7,-13.77 -11.69,-18.07l0 0zm-18.94 -34.83c-1.26,2.4 -3,4.37 -5.34,6.01 -2.46,1.73 -5.52,3.06 -9.09,3.95 -3.78,0.94 -8.08,1.42 -12.82,1.42l-8.48 0 0 -38.22 9.57 0c9.97,0 17.37,1.56 22.01,4.65 4.04,2.69 6.01,7.22 6.01,13.87 0,3.21 -0.61,5.94 -1.86,8.32l0 0z"/>
     <path class="fil1" d="M1652.4 745.86c-7.33,-7.37 -16.58,-12.89 -27.48,-16.39 -10.63,-3.43 -23.14,-5.17 -37.17,-5.17l-57.58 0 0 181.55 50.13 0c16.17,0 30.32,-2.2 42.05,-6.55 11.91,-4.4 21.85,-10.79 29.55,-18.99 7.69,-8.18 13.41,-18.17 17.02,-29.69 3.53,-11.28 5.32,-23.97 5.32,-37.71 0,-14.98 -1.79,-28.12 -5.33,-39.06 -3.62,-11.21 -9.17,-20.62 -16.49,-27.99l0 0zm-35.6 110.33c-7.56,8.4 -18.53,12.48 -33.53,12.48l-9.58 0 0 -107.2 11.88 0c8.39,0 15.44,1.19 20.94,3.53 5.33,2.27 9.45,5.47 12.61,9.79 3.22,4.42 5.56,9.97 6.94,16.49 1.45,6.89 2.19,14.87 2.19,23.73 0,18.89 -3.85,32.75 -11.45,41.18l0 0z"/>
     <path class="fil1" d="M1779.11 839.79c0,6.26 -0.57,11.59 -1.72,15.86 -1.07,3.98 -2.64,7.23 -4.68,9.66 -1.96,2.33 -4.35,3.98 -7.32,5.04 -3.22,1.15 -7.35,1.73 -12.26,1.73 -5.2,0 -9.49,-0.67 -12.75,-1.98 -3.13,-1.27 -5.65,-3.09 -7.7,-5.55 -2.06,-2.48 -3.53,-5.59 -4.39,-9.26 -0.95,-4.05 -1.43,-8.82 -1.43,-14.18l0 -116.8 -43.53 0 0 118.77c0,9.81 1.21,18.82 3.6,26.77 2.49,8.26 6.59,15.4 12.2,21.21 5.61,5.8 12.95,10.3 21.81,13.33 8.62,2.97 19.04,4.47 30.95,4.47 10.66,0 20.44,-1.5 29.06,-4.47 8.81,-3.02 16.41,-7.6 22.59,-13.62 6.18,-6.03 10.97,-13.61 14.25,-22.54 3.22,-8.77 4.86,-19.04 4.86,-30.53l0 -113.39 -43.54 0 0 115.49z"/>
     <polygon class="fil1" points="1844.91,760.82 1883.98,760.82 1883.98,869.06 1844.91,869.06 1844.91,905.84 1967.13,905.84 1967.13,869.06 1928.06,869.06 1928.06,760.82 1967.13,760.82 1967.13,724.29 1844.91,724.29 "/>
     <polygon class="fil1" points="2088.29,827.74 2039.62,724.29 1990.34,724.29 1990.34,905.84 2030.89,905.84 2030.89,800.43 2079.82,905.84 2128.85,905.84 2128.85,724.29 2088.29,724.29 "/>
     <path class="fil1" d="M2269.79 745.77c-12.71,-16.17 -31.77,-24.36 -56.63,-24.36 -10.64,0 -20.78,1.89 -30.15,5.6 -9.51,3.77 -17.91,9.63 -24.97,17.44 -7,7.75 -12.56,17.71 -16.51,29.6 -3.91,11.74 -5.9,25.82 -5.9,41.86 0,29.62 6.3,52.67 18.73,68.5 12.71,16.21 31.77,24.43 56.63,24.43 10.64,0 20.79,-1.88 30.17,-5.6 9.51,-3.77 17.9,-9.64 24.96,-17.44 6.99,-7.74 12.55,-17.7 16.52,-29.6 3.9,-11.74 5.88,-25.82 5.88,-41.86 0,-29.71 -6.3,-52.78 -18.73,-68.57l0 0zm-28.65 94.33c-1.25,6.7 -3.19,12.35 -5.78,16.79 -2.46,4.23 -5.5,7.33 -9.29,9.47 -3.78,2.13 -8.49,3.21 -13.99,3.21 -10.88,0 -18.46,-4.05 -23.19,-12.38 -5.19,-9.15 -7.82,-23.57 -7.82,-42.86 0,-9.06 0.65,-17.2 1.95,-24.18 1.24,-6.69 3.2,-12.33 5.83,-16.77 2.5,-4.25 5.55,-7.36 9.33,-9.51 3.72,-2.12 8.4,-3.2 13.9,-3.2 10.97,0 18.57,4.04 23.25,12.36 5.15,9.15 7.76,23.58 7.76,42.88 0,9.09 -0.65,17.22 -1.95,24.18l0 0z"/>
     <polygon class="fil1" points="2225.63,196.05 2233.35,196.05 2233.35,216.36 2238.83,216.36 2238.83,196.05 2246.62,196.05 2246.62,191.01 2225.63,191.01 "/>
     <polygon class="fil1" points="2265.69,191.01 2260.4,208.29 2254.93,191.01 2247.79,191.01 2247.79,216.36 2252.94,216.36 2252.94,200.16 2258.05,216.36 2262.75,216.36 2267.6,200.58 2267.6,216.36 2272.73,216.36 2272.73,191.01 "/>
     <path class="fil1" d="M2013.58 681.61c-69.02,0 -128.03,-23.27 -179.96,-70.87 -32.08,-29.39 -58.53,-65.41 -82.87,-102.86 -24.33,37.45 -50.79,73.46 -82.86,102.86 -55.81,51.14 -119.78,74.2 -195.56,70.49 -144.5,-0.63 -261.87,-114.67 -261.87,-254.75 0,-140.47 118.01,-254.75 263.06,-254.75 79.38,0 146.21,26.27 204.29,80.3 27.9,25.96 51.45,56.06 72.93,87.57 21.48,-31.5 45.04,-61.61 72.93,-87.57 58.08,-54.03 124.92,-80.3 204.29,-80.3 145.06,0 263.06,114.28 263.06,254.75 0,140.08 -117.36,254.12 -261.87,254.75 -5.25,0.26 -10.45,0.38 -15.59,0.38l0 0zm-209.99 -258.53c28.79,46.71 56.73,90.19 90.77,121.37 38.42,35.21 78.91,49.69 131.26,46.93l2.36 -0.06c95.47,0 173.15,-73.95 173.15,-164.84 0,-90.89 -77.68,-164.84 -173.15,-164.84 -56.37,0 -101.82,17.86 -143.05,56.22 -30.79,28.65 -56.22,65.36 -81.33,105.22l0 0zm-330.07 -161.44c-95.47,0 -173.15,73.95 -173.15,164.84 0,90.89 77.68,164.84 173.15,164.84l2.36 0.06c52.35,2.77 92.83,-11.71 131.25,-46.93 34.04,-31.19 61.98,-74.66 90.77,-121.37 -25.11,-39.87 -50.54,-76.57 -81.33,-105.22 -41.24,-38.35 -86.69,-56.22 -143.06,-56.22l0 0z"/>
     <polygon class="fil1" points="2039.86,393.8 2039.86,345.05 1989.11,345.05 1989.11,393.8 1940.36,393.8 1940.36,444.31 1989.11,444.31 1989.11,493.42 2039.86,493.42 2039.86,444.31 2088.62,444.31 2088.62,393.8 "/>
     <polygon class="fil1" points="1400.52,393.19 1560.77,393.19 1560.77,445.28 1400.52,445.28 "/>
    </g>
   </g>
   <g>
    <path class="fil2" d="M3549.52 116.88l-222.51 -107.14c-25.75,-12.4 -56.54,-7.17 -76.75,13.04l-728.42 664.15c-19.59,17.87 -19.57,48.71 0.05,66.55l59.5 54.09c16.04,14.58 40.19,15.65 57.46,2.56l877.19 -665.46c29.43,-22.32 71.7,-1.33 71.7,35.6l0 -2.58c0,-25.93 -14.85,-49.57 -38.22,-60.81z"/>
    <path class="fil3" d="M3549.52 963.63l-222.51 107.14c-25.75,12.4 -56.54,7.17 -76.75,-13.04l-728.42 -664.15c-19.59,-17.86 -19.57,-48.71 0.05,-66.55l59.5 -54.09c16.04,-14.58 40.19,-15.65 57.46,-2.55l877.19 665.46c29.43,22.32 71.7,1.34 71.7,-35.61l0 2.59c0,25.93 -14.85,49.56 -38.22,60.81z"/>
    <path class="fil4" d="M3326.31 1070.85c-25.76,12.39 -56.54,7.16 -76.76,-13.06 24.91,24.91 67.5,7.26 67.5,-27.96l0 -979.01c0,-35.22 -42.59,-52.86 -67.5,-27.96 20.22,-20.22 51,-25.46 76.76,-13.06l222.47 106.99c23.38,11.24 38.24,34.89 38.24,60.83l0 725.43c0,25.94 -14.86,49.58 -38.24,60.83l-222.47 106.98z"/>
   </g>
   <g>
    <path class="fil5" d="M4068.03 848.71c-12.91,11.03 -30.93,13.86 -46.6,7.32l-81.83 -34.33c-16.69,-6.96 -27.59,-23.23 -27.69,-41.31l0 -480.18c0.1,-18.08 11,-34.35 27.69,-41.31l81.83 -33.77c15.67,-6.54 33.69,-3.72 46.6,7.32l18.35 15.2c-7.59,-5.45 -17.59,-6.2 -25.9,-1.92 -8.31,4.27 -13.52,12.84 -13.5,22.18l0 544.79c-0.02,9.34 5.19,17.91 13.5,22.18 8.31,4.27 18.31,3.53 25.9,-1.92l-18.35 15.76z"/>
    <path class="fil6" d="M3939.6 821.69c-16.69,-6.96 -27.59,-23.23 -27.69,-41.31l0 -3.72c0.11,10.63 6.69,20.12 16.6,23.97 9.92,3.84 21.17,1.26 28.42,-6.52l697.87 -771.6c20.25,-20.15 50.99,-25.38 76.77,-13.06l222.65 107.15c23.4,11.25 38.28,34.93 38.27,60.9l0 2.59c-0.02,-16.48 -9.52,-31.47 -24.41,-38.52 -14.89,-7.05 -32.51,-4.89 -45.27,5.54l-836.44 685.83 -18.35 15.76c-12.91,11.03 -30.93,13.86 -46.6,7.32l-81.83 -34.33z"/>
    <path class="fil7" d="M3939.6 258.89c-16.69,6.96 -27.59,23.23 -27.69,41.31l0 3.71c0.11,-10.63 6.69,-20.12 16.6,-23.97 9.92,-3.84 21.17,-1.26 28.42,6.52l697.87 771.6c20.25,20.15 50.99,25.38 76.77,13.06l222.65 -107.16c23.4,-11.25 38.28,-34.93 38.27,-60.9l0 -2.59c-0.02,16.48 -9.52,31.47 -24.41,38.52 -14.89,7.05 -32.51,4.89 -45.27,-5.54l-836.44 -685.83 -18.35 -15.76c-13.02,-10.84 -31.03,-13.45 -46.6,-6.75l-81.83 33.77z"/>
    <path class="fil8" d="M4731.58 1071.13c-25.77,12.32 -56.51,7.09 -76.77,-13.06 11.34,11.26 28.34,14.61 43.1,8.48 14.76,-6.13 24.4,-20.52 24.43,-36.5l0 -979.28c0.06,-16.02 -9.55,-30.5 -24.33,-36.69 -14.78,-6.18 -31.83,-2.85 -43.21,8.44 20.25,-20.15 50.99,-25.38 76.77,-13.06l222.65 107.04c23.4,11.25 38.28,34.93 38.27,60.9l0 725.79c0.01,25.97 -14.87,49.64 -38.27,60.9l-222.65 107.04z"/>
   </g>
  </g>
 </g>
</svg>
