<?xml version="1.0" encoding="UTF-8"?>
<!DOCTYPE svg PUBLIC "-//W3C//DTD SVG 1.1//EN" "http://www.w3.org/Graphics/SVG/1.1/DTD/svg11.dtd">
<!-- Creator: CorelDRAW 2020 (64 Bit) -->
<svg xmlns="http://www.w3.org/2000/svg" xml:space="preserve" width="366.416mm" height="60mm" version="1.1" style="shape-rendering:geometricPrecision; text-rendering:geometricPrecision; image-rendering:optimizeQuality; fill-rule:evenodd; clip-rule:evenodd"
viewBox="0 0 11031.96 1806.46"
 xmlns:xlink="http://www.w3.org/1999/xlink"
 xmlns:xodm="http://www.corel.com/coreldraw/odm/2003">
 <defs>
  <style type="text/css">
   <![CDATA[
    .str0 {stroke:#EF6228;stroke-width:2.29;stroke-miterlimit:22.9256}
    .fil24 {fill:black}
    .fil20 {fill:#E44D26}
    .fil21 {fill:#EF6228}
    .fil22 {fill:#EFEFEF}
    .fil23 {fill:#FFFEFC}
    .fil9 {fill:black;fill-rule:nonzero}
    .fil1 {fill:#1A4674;fill-rule:nonzero}
    .fil2 {fill:#1B598E;fill-rule:nonzero}
    .fil7 {fill:#2062AF;fill-rule:nonzero}
    .fil5 {fill:#280068;fill-rule:nonzero}
    .fil6 {fill:#390091;fill-rule:nonzero}
    .fil8 {fill:#3C9CD7;fill-rule:nonzero}
    .fil16 {fill:#5382A1;fill-rule:nonzero}
    .fil0 {fill:#5C8DBC;fill-rule:nonzero}
    .fil4 {fill:#A179DC;fill-rule:nonzero}
    .fil15 {fill:#E76F00;fill-rule:nonzero}
    .fil3 {fill:white;fill-rule:nonzero}
    .fil13 {fill:black;fill-rule:nonzero;fill-opacity:0.050980}
    .fil10 {fill:url(#id0);fill-rule:nonzero}
    .fil18 {fill:url(#id1);fill-rule:nonzero}
    .fil11 {fill:url(#id2);fill-rule:nonzero}
    .fil17 {fill:url(#id3);fill-rule:nonzero}
    .fil12 {fill:url(#id4);fill-rule:nonzero}
    .fil14 {fill:url(#id5);fill-rule:nonzero}
    .fil19 {fill:url(#id6);fill-rule:nonzero}
   ]]>
  </style>
  <linearGradient id="id0" gradientUnits="userSpaceOnUse" x1="-7586.87" y1="-9587.04" x2="-7586.87" y2="-9898.58">
   <stop offset="0" style="stop-opacity:1; stop-color:#D1D3D4"/>
   <stop offset="0.388235" style="stop-opacity:0; stop-color:#D1D3D4"/>
   <stop offset="1" style="stop-opacity:1; stop-color:#D1D3D4"/>
  </linearGradient>
  <linearGradient id="id1" gradientUnits="userSpaceOnUse" x1="9789.12" y1="2124.39" x2="10612.86" y2="1300.65">
   <stop offset="0" style="stop-opacity:1; stop-color:#00AFFF"/>
   <stop offset="0.290196" style="stop-opacity:1; stop-color:#00AFFF"/>
   <stop offset="0.690196" style="stop-opacity:1; stop-color:#5282FF"/>
   <stop offset="1" style="stop-opacity:1; stop-color:#945DFF"/>
  </linearGradient>
  <linearGradient id="id2" gradientUnits="userSpaceOnUse" xlink:href="#id0" x1="-7198.44" y1="-9740.95" x2="-7198.44" y2="-10064.03">
  </linearGradient>
  <linearGradient id="id3" gradientUnits="userSpaceOnUse" x1="8922.02" y1="1647.49" x2="10598.41" y2="-14.45">
   <stop offset="0" style="stop-opacity:1; stop-color:#C757BC"/>
   <stop offset="0.109804" style="stop-opacity:1; stop-color:#C757BC"/>
   <stop offset="0.168627" style="stop-opacity:1; stop-color:#CD5CA9"/>
   <stop offset="0.490196" style="stop-opacity:1; stop-color:#E8744F"/>
   <stop offset="0.721569" style="stop-opacity:1; stop-color:#F88316"/>
   <stop offset="0.819608" style="stop-opacity:1; stop-color:#FF8900"/>
   <stop offset="1" style="stop-opacity:1; stop-color:#FF8900"/>
  </linearGradient>
  <linearGradient id="id4" gradientUnits="userSpaceOnUse" x1="-7775.34" y1="-9448.64" x2="-7029.18" y2="-9448.64">
   <stop offset="0" style="stop-opacity:1; stop-color:#E8E7E5"/>
   <stop offset="1" style="stop-opacity:1; stop-color:white"/>
  </linearGradient>
  <linearGradient id="id5" gradientUnits="userSpaceOnUse" xlink:href="#id4" x1="-7809.95" y1="-9987.19" x2="-6998.4" y2="-9987.19">
  </linearGradient>
  <linearGradient id="id6" gradientUnits="userSpaceOnUse" xlink:href="#id1" x1="6956.93" y1="5029.05" x2="44844.26" y2="-30999.06">
  </linearGradient>
 </defs>
 <g id="Camada_x0020_1">
  <metadata id="CorelCorpID_0Corel-Layer"/>
  <g id="c-logo-svgrepo-com.svg">
   <g>
    <path class="fil0" d="M7319.37 531.1c-0.01,-30.37 -6.51,-57.22 -19.65,-80.25 -12.9,-22.65 -32.23,-41.64 -58.15,-56.65 -213.97,-123.38 -428.16,-246.38 -642.07,-369.89 -57.67,-33.29 -113.58,-32.08 -170.82,1.69 -85.17,50.23 -511.58,294.53 -638.64,368.12 -52.33,30.29 -77.79,76.65 -77.8,136.91 -0.08,248.12 0,496.24 -0.08,744.37 0.01,29.71 6.23,56.03 18.79,78.72 12.91,23.34 32.51,42.84 59.03,58.2 127.07,73.6 553.53,317.88 638.68,368.12 57.27,33.79 113.18,35 170.87,1.69 213.91,-123.51 428.1,-246.51 642.11,-369.89 26.52,-15.35 46.12,-34.86 59.03,-58.18 12.54,-22.69 18.77,-49.01 18.78,-78.72 0,0 0,-496.12 -0.08,-744.24l-0 -0zm0 0l0 0 0 0z"/>
   </g>
   <g>
    <path class="fil1" d="M6518.26 900.81l-787.31 453.32c12.91,23.34 32.5,42.84 59.03,58.2 127.07,73.6 553.54,317.88 638.69,368.12 57.26,33.79 113.18,35 170.86,1.69 213.91,-123.51 428.11,-246.51 642.11,-369.89 26.52,-15.35 46.12,-34.86 59.03,-58.18l-782.4 -453.26 0 0zm0 0l0 0 0 0z"/>
   </g>
   <g>
    <path class="fil1" d="M6285.07 1035.09c45.81,79.98 131.94,133.93 230.74,133.93 99.41,0 186.02,-54.63 231.6,-135.47l-229.14 -132.74 -233.19 134.28 -0 0zm0 0l0 0 0 0z"/>
   </g>
   <path class="fil2" d="M7319.37 531.1c-0.01,-30.37 -6.51,-57.22 -19.65,-80.25l-781.46 449.96 782.4 453.25c12.54,-22.69 18.77,-49.01 18.78,-78.72 0,0 0,-496.11 -0.08,-744.24z"/>
   <g>
    <path class="fil3" d="M7276.35 933.21l-61.14 0 0 61.15 -61.15 0 0 -61.15 -61.13 0 0 -61.13 61.13 0 0 -61.14 61.15 0 0 61.14 61.14 0 0 61.13 0 0zm-223.09 0l-61.14 0 0 61.15 -61.14 0 0 -61.15 -61.14 0 0 -61.13 61.14 0 0 -61.14 61.14 0 0 61.14 61.14 0 0 61.13z"/>
   </g>
   <g>
    <path class="fil3" d="M6747.41 1033.55c-45.58,80.84 -132.2,135.47 -231.6,135.47 -98.8,0 -184.92,-53.94 -230.73,-133.93 -22.94,-40.01 -35.05,-85.45 -35.05,-131.59 0,-0.06 0,-0.19 0,-0.26 0,-146.78 119,-265.78 265.79,-265.78 98.16,0 183.83,53.27 229.87,132.44l232.31 -133.77c-92.34,-159.39 -264.73,-266.63 -462.19,-266.63 -294.79,0 -533.76,238.97 -533.76,533.75 0,96.71 25.73,187.4 70.69,265.63 92.11,160.24 264.99,268.13 463.07,268.13 198.44,0 371.6,-108.33 463.57,-269.04l-231.96 -134.39 -0.01 -0.02zm0 0l0 0 0 0z"/>
   </g>
  </g>
  <g id="c-sharp-svgrepo-com.svg">
   <g>
    <path class="fil4" d="M5211.83 531.1c-0.01,-30.38 -6.51,-57.22 -19.64,-80.25 -12.91,-22.65 -32.23,-41.64 -58.15,-56.65 -213.98,-123.38 -428.16,-246.38 -642.07,-369.89 -57.67,-33.29 -113.58,-32.08 -170.82,1.69 -85.17,50.23 -511.58,294.53 -638.64,368.12 -52.33,30.29 -77.79,76.65 -77.8,136.91 -0.08,248.12 0,496.24 -0.08,744.37 0,29.71 6.23,56.03 18.79,78.72 12.91,23.34 32.51,42.85 59.03,58.2 127.07,73.6 553.53,317.88 638.68,368.12 57.27,33.79 113.18,34.99 170.87,1.69 213.91,-123.51 428.1,-246.51 642.11,-369.89 26.52,-15.34 46.12,-34.86 59.03,-58.18 12.54,-22.69 18.78,-49.01 18.78,-78.72 0,0 0,-496.11 -0.08,-744.24z"/>
    <path class="fil5" d="M4410.72 900.81l-787.32 453.32c12.91,23.34 32.51,42.85 59.03,58.2 127.07,73.6 553.53,317.88 638.68,368.12 57.27,33.79 113.18,34.99 170.87,1.69 213.91,-123.51 428.1,-246.51 642.11,-369.89 26.52,-15.34 46.12,-34.86 59.03,-58.18l-782.4 -453.25z"/>
    <path class="fil6" d="M5211.83 531.1c-0.01,-30.38 -6.51,-57.22 -19.64,-80.25l-781.46 449.96 782.4 453.25c12.54,-22.69 18.77,-49.01 18.78,-78.72 0,0 0,-496.11 -0.08,-744.24z"/>
    <path class="fil3" d="M4874.27 731.34l0 84.73 84.73 0 0 -84.73 42.36 0 0 84.73 84.74 0 0 42.37 -84.74 0 0 84.73 84.74 0 0 42.37 -84.74 0 0 84.73 -42.36 0 0 -84.73 -84.73 0 0 84.73 -42.37 0 0 -84.73 -84.74 0 0 -42.37 84.74 0 0 -84.73 -84.74 0 0 -42.37 84.74 0 0 -84.73 42.37 0zm84.73 127.1l-84.73 0 0 84.73 84.73 0 0 -84.73z"/>
    <path class="fil3" d="M4412.45 305.8c221.01,0 413.97,120.03 517.33,298.44l-1.01 -1.72 -260.03 149.73c-51.23,-86.75 -145.15,-145.28 -252.89,-146.49l-3.4 -0.02c-164.29,0 -297.49,133.19 -297.49,297.49 0,53.73 14.33,104.09 39.24,147.59 51.28,89.52 147.68,149.9 258.26,149.9 111.27,0 208.22,-61.15 259.23,-151.63l-1.24 2.17 259.64 150.41c-102.22,176.9 -292.54,296.56 -510.98,298.95l-6.66 0.04c-221.7,0 -415.22,-120.77 -518.31,-300.12 -50.33,-87.56 -79.13,-189.07 -79.13,-297.31 0,-329.95 267.47,-597.43 597.43,-597.43z"/>
   </g>
  </g>
  <g>
   <polygon class="fil7" points="1168.68,1665.41 644.79,1806.47 120.89,1665.4 0,355.68 1289.59,355.68 "/>
   <polygon class="fil8" points="644.79,461.77 644.79,1693.96 645.97,1694.28 1069.93,1580.12 1167.79,461.77 "/>
   <path class="fil9" d="M347.46 163.26l0 -77.95 113.73 0 0 -85.3 -199.04 0 0 241.09 199.04 0 0 -77.84 -113.73 0zm318.33 -77.95l79.51 0 0 -85.3 -199.05 0 0 85.3c26.63,26.63 40.52,39.38 79.03,77.89 -22.51,0 -79.03,0.08 -79.03,0.08l0 77.83 199.05 0 0 -77.84 -79.51 -77.95zm282.12 0l79.51 0 0 -85.3 -199.06 0 0 85.3c26.63,26.63 40.53,39.38 79.04,77.89 -22.51,0 -79.04,0.08 -79.04,0.08l0 77.83 199.07 0 0 -77.84 -79.52 -77.95z"/>
   <polygon class="fil3" points="644.32,789.25 269.36,945.41 281.79,1100.03 644.32,945.02 1029.96,780.14 1045.95,621.98 644.32,789.25 "/>
   <polygon class="fil10" points="269.35,945.41 281.79,1100.03 644.32,945.02 644.32,789.25 "/>
   <polygon class="fil11" points="1045.95,621.98 644.32,789.25 644.32,945.02 1029.96,780.14 "/>
   <polygon class="fil12" points="269.93,945.41 282.37,1100.03 838.62,1101.8 826.18,1307.95 643.14,1359.48 467.19,1315.05 456.53,1187.1 293.03,1187.1 314.36,1434.12 644.92,1531.86 973.69,1435.89 1016.34,945.41 "/>
   <path class="fil13" d="M644.32 945.41l-374.96 0 12.43 154.62 362.53 1.16 0 -155.77zm0 413.57l-1.78 0.49 -175.93 -44.43 -10.66 -127.95 -163.49 0 21.33 247.02 330.54 97.74 0 -172.88 0 0z"/>
   <polygon class="fil14" points="235.59,621.98 1045.95,621.98 1029.96,780.15 255.13,780.15 "/>
   <polygon class="fil13" points="644.32,621.98 235.59,621.98 255.13,780.15 644.32,780.15 "/>
  </g>
  <g id="java-4-logo-svgrepo-com.svg">
   <path class="fil15" d="M8766.99 1424.54l-6.8 0 0 -3.81 18.32 0 0 3.81 -6.76 0 0 18.99 -4.75 0 0 -18.99zm36.54 0.99l-0.11 0 -6.75 18.01 -3.09 0 -6.7 -18.01 -0.08 0 0 18.01 -4.48 0 0 -22.8 6.6 0 6.21 16.15 6.19 -16.15 6.58 0 0 22.8 -4.38 0 0 -18.01 0 0z"/>
   <g>
    <path class="fil16" d="M8157.75 958.24c0,0 -47.35,27.54 33.7,36.85 98.19,11.2 148.37,9.59 256.57,-10.89 0,0 28.45,17.84 68.18,33.29 -242.56,103.96 -548.97,-6.02 -358.45,-59.26l0 0zm-29.64 -135.66c0,0 -53.11,39.31 28,47.7 104.89,10.82 187.72,11.71 331.05,-15.89 0,0 19.83,20.1 51,31.09 -293.27,85.76 -619.93,6.76 -410.05,-62.9l0 0zm0 0l0 0 0 0z"/>
   </g>
   <g>
    <path class="fil15" d="M8377.99 592.46c59.77,68.81 -15.7,130.74 -15.7,130.74 0,0 151.75,-78.34 82.06,-176.45 -65.1,-91.49 -115.01,-136.94 155.23,-293.67 0,-0 -424.18,105.94 -221.59,339.38l0 0zm0 0l0 0 0 0z"/>
   </g>
   <g>
    <path class="fil16" d="M8698.8 1058.58c0,0 35.04,28.88 -38.59,51.21 -140.01,42.41 -582.73,55.22 -705.73,1.69 -44.21,-19.24 38.7,-45.93 64.78,-51.53 27.2,-5.9 42.74,-4.8 42.74,-4.8 -49.17,-34.64 -317.8,68.01 -136.45,97.4 494.56,80.2 901.53,-36.11 773.25,-93.98l0 0zm-518.27 -376.56c0,0 -225.2,53.49 -79.75,72.91 61.41,8.22 183.84,6.36 297.87,-3.19 93.2,-7.86 186.78,-24.57 186.78,-24.57 0,0 -32.86,14.08 -56.64,30.3 -228.68,60.15 -670.46,32.17 -543.28,-29.36 107.56,-51.99 195.01,-46.09 195.01,-46.09l0 0zm403.98 225.81c232.47,-120.8 124.99,-236.89 49.96,-221.25 -18.39,3.83 -26.59,7.14 -26.59,7.14 0,0 6.83,-10.69 19.86,-15.32 148.42,-52.18 262.56,153.9 -47.91,235.52 0,0 3.6,-3.21 4.68,-6.09l-0 0zm0 0l0 0 0 0z"/>
   </g>
   <g>
    <path class="fil15" d="M8444.35 0c0,0 128.75,128.79 -122.11,326.83 -201.16,158.86 -45.87,249.44 -0.08,352.93 -117.42,-105.95 -203.59,-199.2 -145.78,-286 84.85,-127.41 319.92,-189.18 267.97,-393.76l0 0zm0 0l0 0 0 0z"/>
   </g>
   <g>
    <path class="fil16" d="M8203.37 1235.18c223.14,14.28 565.8,-7.92 573.92,-113.51 0,0 -15.6,40.03 -184.42,71.81 -190.45,35.84 -425.36,31.66 -564.68,8.69 0.01,-0.01 28.52,23.6 175.18,33.01l-0 0zm0 0l0 0 0 0z"/>
   </g>
   <g>
    <path class="fil15" d="M8166.8 1638.62c-21.05,18.26 -43.28,28.51 -63.23,28.51 -28.48,0 -43.86,-17.08 -43.86,-44.47 0,-29.63 16.49,-51.29 82.62,-51.29l24.47 0 0 67.25 0 0zm58.08 65.54l0 -202.86c0,-51.82 -29.56,-86.02 -100.82,-86.02 -41.6,0 -78.05,10.27 -107.67,23.38l8.55 35.91c23.32,-8.56 53.51,-16.53 83.14,-16.53 41.05,0 58.71,16.53 58.71,50.7l0 25.64 -20.49 0c-99.74,0 -144.73,38.72 -144.73,96.83 0,50.15 29.65,78.66 85.48,78.66 35.88,0 62.67,-14.82 87.71,-36.5l4.55 30.79 45.57 -0.01 0 0zm193.85 0l-72.44 0 -87.19 -283.74 63.27 0 54.1 174.33 12.03 52.43c27.37,-75.81 46.73,-152.71 56.41,-226.76l61.54 0c-16.49,93.43 -46.16,195.99 -87.71,283.74l0 0zm277.91 -65.54c-21.09,18.26 -43.36,28.51 -63.32,28.51 -28.43,0 -43.85,-17.08 -43.85,-44.47 0,-29.63 16.52,-51.29 82.65,-51.29l24.52 0 0 67.25 0 0zm58.07 65.54l0 -202.86c0,-51.82 -29.63,-86.02 -100.81,-86.02 -41.63,0 -78.09,10.27 -107.69,23.38l8.54 35.91c23.33,-8.56 53.57,-16.53 83.18,-16.53 41.02,0 58.71,16.53 58.71,50.7l0 25.64 -20.52 0c-99.77,0 -144.74,38.72 -144.74,96.83 0,50.15 29.63,78.66 85.44,78.66 35.91,0 62.69,-14.82 87.77,-36.5l4.56 30.79 45.57 -0.01 0 0zm-816.83 48.18c-16.56,24.18 -43.3,43.3 -72.58,54.12l-28.68 -33.75c22.29,-11.43 41.4,-29.9 50.28,-47.1 7.68,-15.3 10.86,-35.02 10.86,-82.17l0 -323.93 61.71 0 0 319.49c-0,63.04 -5.04,88.5 -21.59,113.34z"/>
   </g>
  </g>
  <g>
   <polygon class="fil17" points="10132.47,0 9225.5,953.8 9225.5,1806.46 10131.17,899.2 11031.96,0 "/>
   <polygon class="fil18" points="9225.5,1806.46 10131.17,899.22 11031.96,1806.46 " data-name="&lt;Path&gt;"/>
   <polygon class="fil19" points="9225.5,0 10132.47,0 9225.5,953.8 "/>
  </g>
  <g>
   <path class="fil20" d="M2293.63 1528.83c-22.96,-10.13 -229.99,-65.89 -284.11,-80.36l-29.98 -9.1c-7.43,-4.15 -1.3,0.62 -7.96,-5.26l-21.53 -247.29 159.82 -0.2 12.17 128.23 179.41 47.15 -1.32 -255.44 -357.89 -0.99 -42.49 -483.38 400.37 -0.26 0.54 -160.27 523.71 0c-13.93,186.92 -37.88,375.46 -50.25,561.94 -6.06,91.24 -15.71,187.32 -24.91,278.37 -0.96,9.56 -19.59,270.72 -28.71,276.85l-420.37 116.68c0,-28.87 0,-57.74 0,-86.61 0,-26.94 4.68,-65.95 -6.5,-80.05zm-518.67 132.97l63.08 18.07c21.43,6.3 43.25,11.81 66.21,18.47l396.42 108.12c14.68,0 469.55,-131.57 525.71,-144.66 0,-29.37 4.85,-55.36 6.83,-81.38l14.24 -162.17c5.71,-103.01 20.28,-224.21 28.6,-331.29l63.28 -702.48c1.06,-18.72 7.61,-31.67 -7.1,-31.67l-1263.11 0c-17.63,0 -5.23,30.45 -3.5,70.54l109.35 1238.44z"/>
   <path class="fil21 str0" d="M2300.12 621.93l400.76 0c0.12,33.91 -8.59,94.45 -11.32,133.61 -1.79,25.69 2.16,27.14 -21.51,27.21l-593.91 -0.95 14.6 164.75 547.14 -0.62c13.3,-0.16 26.8,-2.32 35.81,4.87l-43.58 487.41 -327.73 90.75 -6.75 -0.12c11.18,14.1 6.5,53.11 6.5,80.05 0,28.87 0,57.74 0,86.61l420.37 -116.68c9.12,-6.13 27.75,-267.29 28.71,-276.85 9.2,-91.05 18.86,-187.13 24.91,-278.37 12.37,-186.48 36.32,-375.02 50.25,-561.94l-523.71 0 -0.54 160.27z"/>
   <path class="fil22" d="M2300.12 1106.56l196.97 0.14 -1.12 18.79c4.81,-6.91 5.78,-7.13 5.78,-17.62 -13.11,-10.86 -30,-7.11 -49.38,-7.04l-152 -0.02 0 -150.02 371.32 0c-9.02,-7.18 -22.51,-5.02 -35.81,-4.87l-547.14 0.62 -14.6 -164.75 593.91 0.95c23.66,-0.07 19.71,-1.52 21.51,-27.21 2.74,-39.15 11.45,-99.7 11.32,-133.61l-400.76 0 -400.37 0.26 42.49 483.38 357.89 0.99z"/>
   <path class="fil23" d="M2495.98 1125.49l-18.2 186.76c-16.96,12.81 -63.1,19.68 -87.69,26.23 -28.49,7.58 -59.47,16.92 -88.64,23.52l-1.07 166.96 327.73 -90.75 43.58 -487.41 -371.32 0 0 150.02 152 0.02c19.38,-0.07 36.27,-3.82 49.38,7.04 0,10.49 -0.97,10.71 -5.78,17.62z"/>
   <path class="fil22" d="M2293.63 1528.83l6.75 0.12 1.07 -166.96 -179.41 -47.15 -12.17 -128.23 -159.82 0.2 21.53 247.29c6.66,5.88 0.53,1.11 7.96,5.26l29.98 9.1c54.11,14.47 261.14,70.23 284.11,80.36z"/>
   <path class="fil24" d="M2311.25 243.45l81.15 0 0 -116.43c7.23,5.3 22.28,31.66 28.93,41.64 7.48,11.22 22.26,36.6 31.05,43.04 3.32,-12.44 44.42,-74.92 52.92,-81.15l0 112.9 84.68 0 0 -243.45 -81.15 0c-13.55,2.86 -15.46,12.19 -31.59,38.97l-28.39 45.71c-3.64,-13.62 -29.64,-50.68 -38.91,-66.94 -6.14,-10.77 -9.92,-15.68 -17.96,-17.74l-80.73 0 0 243.45z"/>
   <polygon class="fil24" points="1778.48,243.45 1863.16,243.45 1863.16,162.3 1933.73,162.3 1933.73,243.45 2018.41,243.45 2018.41,0 1933.73,0 1933.73,77.62 1863.16,77.62 1863.16,0 1778.48,0 "/>
   <path class="fil21 str0" d="M2301.44 1362c29.17,-6.6 60.15,-15.94 88.64,-23.52 24.59,-6.54 70.73,-13.42 87.69,-26.23l18.2 -186.76 1.12 -18.79 -196.97 -0.14 1.32 255.44z"/>
   <polygon class="fil24" points="2050.16,81.15 2124.25,81.15 2124.25,243.45 2205.4,243.45 2205.4,81.15 2279.49,81.15 2279.49,0 2050.16,0 "/>
   <polygon class="fil24" points="2625.26,243.45 2826.37,243.45 2826.37,162.3 2709.94,162.3 2709.94,0 2625.26,0 "/>
  </g>
 </g>
</svg>
