<?xml version="1.0" encoding="UTF-8"?>
<!DOCTYPE svg PUBLIC "-//W3C//DTD SVG 1.1//EN" "http://www.w3.org/Graphics/SVG/1.1/DTD/svg11.dtd">
<!-- Creator: CorelDRAW 2020 (64 Bit) -->
<svg xmlns="http://www.w3.org/2000/svg" xml:space="preserve" width="180.029mm" height="180.086mm" version="1.1" style="shape-rendering:geometricPrecision; text-rendering:geometricPrecision; image-rendering:optimizeQuality; fill-rule:evenodd; clip-rule:evenodd"
viewBox="0 0 12593.81 12597.79"
 xmlns:xlink="http://www.w3.org/1999/xlink"
 xmlns:xodm="http://www.corel.com/coreldraw/odm/2003">
 <defs>
  <style type="text/css">
   <![CDATA[
    .fil0 {fill:#0178B5}
    .fil2 {fill:#A7D0E6}
    .fil1 {fill:white}
   ]]>
  </style>
 </defs>
 <g id="Camada_x0020_1">
  <metadata id="CorelCorpID_0Corel-Layer"/>
  <g id="_2305930857488">
   <path class="fil0" d="M6661.17 7368.29l5.72 22.93c6.05,80.74 1.52,419.72 1.52,503.87l0 1072.03c0,170.85 9.42,370.04 -0.92,537.4 -56.39,11.74 -1160.9,0.11 -1384.51,2.12l-41.38 -6.13 -0.52 -4281.57 1424.39 -0.04 4.95 583.96 224.42 -270.33c235.42,-273 691.4,-424.42 1083.18,-420.91 546.9,4.9 1028.2,257.69 1309.75,691.98 316.96,488.93 307.91,1040.72 307.71,1694.66l0 1504.39c0,160.87 8.22,344.5 -0.9,502.57l-1426.28 -4.18c0,-490.45 -0.07,-980.09 -0.07,-1469.74 0,-410.24 34.94,-1018.29 -99.8,-1375.64 -67.59,-179.25 -179.75,-311.88 -359.91,-374.53 -191.82,-66.7 -450.45,-43.03 -614.38,43.24 -143.37,75.45 -291.76,230.95 -354.28,379.9 -117.56,280.1 -58.18,573.19 -78.67,664.02zm-6661.17 -916.6l0 -428.2c0,-131.12 10.19,-256.7 22.69,-374.14 13.14,-123.41 25.34,-228.93 44.99,-345.91 38.54,-229.33 84.97,-435.63 138.36,-643.46 61.64,-239.98 197.12,-636 305.32,-867.4l122.46 -268.44c17.21,-38.69 45.2,-96.43 67.58,-133.8l210.72 -375.63c13.72,-20.74 23.85,-39.51 38.03,-62.66 147.44,-240.73 322.05,-455.16 495.02,-677.7l273.88 -312.48c107.51,-106.3 209.3,-216.75 322.89,-316.77l130.25 -112.59c135.77,-126.23 287.15,-235.65 435.48,-346.32 151.81,-113.26 311.04,-210.32 473.28,-308.53 152.95,-92.6 348.57,-194.12 508.28,-273.53 222.48,-110.63 457.46,-203.47 695.2,-282.06 251.11,-83.02 506.46,-158.01 767.12,-210.14 431.18,-86.24 932.13,-111.92 1451.7,-111.92 254.08,0 491,28.71 715.67,60.21 220.99,30.99 438.09,80.17 644.19,131.7 416.04,103.99 794.48,239.81 1139.55,412.22l193.4 102.74c251.67,126.72 487.06,284.94 721.09,439.77l114.35 81.1c156.03,117.5 313.18,234.28 459.21,364.06 128.14,113.89 254.14,231.38 373.31,355.19l272.68 307.75c15.78,18.78 27.48,32.03 42.99,51.78 30.26,38.52 57.65,70.7 86.3,109.15l244.43 336c28.32,40.87 49.21,77.13 76.96,118.5 172.91,257.83 350.11,593.45 477.44,878.87 19.82,44.42 40.51,87.34 60.79,134.66 108.87,254.05 174.93,458.11 252.33,719.01 94.14,317.36 134.9,654.41 176.7,984.16l31.44 460.15c-0.12,29.09 -2.15,66.4 0.17,94.59 12.64,152.76 5.61,324.45 5.61,480.05 0,449.16 -96.5,923.68 -211.93,1333.91 -108.85,386.83 -249.53,755.8 -427.73,1112.2 -64.61,129.23 -129.53,259.05 -201.63,384.73 -92.53,161.3 -193.33,319.27 -295.86,474.1l-243.67 330.84c-15.64,19.56 -27.86,36.06 -43.99,56.7 -15.47,19.8 -27.04,32.89 -42.68,52.09 -15.35,18.85 -29.53,33.51 -43.69,51.07 -16.03,19.89 -27.05,31.05 -43.1,51.67l-327.6 347.6 -585.39 480.71c-240.71,180.32 -486.76,350.83 -746.31,503.4l-312.46 167.29c-564.16,282.08 -1285.23,500.33 -1921.15,584.19 -107.24,14.14 -241.88,32.71 -351,33.99 -66.39,0.78 -116.06,5.69 -183.84,5.69l-515.28 5.93c-550.71,0 -1192.25,-120.42 -1666.47,-276.21 -100.54,-33.03 -195.27,-61.08 -288.91,-96.08 -164.07,-61.3 -324.31,-118.23 -478.91,-196.28 -21.41,-10.81 -40.01,-20.04 -63.15,-31.61 -176.06,-88.03 -342.49,-170.33 -506.52,-269.35 -220.63,-133.19 -332.67,-220.98 -524.84,-351.74 -148.25,-100.87 -346.9,-262.31 -482.33,-388.32l-200.85 -184.13c-54.29,-43.32 -215.91,-232.37 -282.02,-298.42l-67.97 -80.09c-122.16,-130.53 -305.33,-362.28 -404.89,-513.14l-332.12 -538.52c-105.2,-187.96 -205.48,-380.08 -292.28,-578.37 -70.34,-160.68 -129.59,-321.31 -185.67,-489.53 -162.1,-486.12 -256.92,-923.69 -299.52,-1447.71 -7.45,-91.67 -3.34,-295.51 -14.66,-370.32 -1.41,-9.32 -2.54,-21.66 -3.42,-36.27zm3000.89 -1234.51l1447.3 -0.06c6.58,62.05 1.66,984.77 1.66,1072.89 0,192.91 8.34,3174.72 -4.32,3212.77l-1422.18 1.01 -22.47 -4286.61zm687.95 -2063.52c1024.66,-91.32 1201.93,1400.88 98.91,1480.5 -1011.16,73 -1214.05,-1381.13 -98.91,-1480.5z"/>
   <path class="fil1" d="M5241.6 9500.5l1420.39 2.63 -0.82 -2134.84c20.49,-90.83 -38.89,-383.92 78.67,-664.02 62.52,-148.95 210.9,-304.45 354.28,-379.9 163.93,-86.27 422.56,-109.94 614.38,-43.24 180.17,62.65 292.32,195.28 359.91,374.53 134.74,357.35 99.8,965.4 99.8,1375.64 0,489.64 0.07,979.29 0.07,1469.74l1426.28 4.18c9.12,-158.07 0.9,-341.7 0.9,-502.57l0 -1504.39c0.2,-653.94 9.25,-1205.73 -307.71,-1694.66 -281.54,-434.29 -762.84,-687.08 -1309.75,-691.98 -391.78,-3.51 -847.75,147.91 -1083.18,420.91l-224.42 270.33 -4.95 -583.96 -1424.39 0.04 0.52 4281.57z"/>
   <path class="fil1" d="M3023.36 9503.79l1422.18 -1.01c12.65,-38.05 4.32,-3019.86 4.32,-3212.77 0,-88.12 4.92,-1010.85 -1.66,-1072.89l-1447.3 0.06 22.47 4286.61z"/>
   <path class="fil1" d="M3688.84 3153.65c-1115.14,99.38 -912.25,1553.5 98.91,1480.5 1103.02,-79.62 925.75,-1571.82 -98.91,-1480.5z"/>
   <path class="fil2" d="M5241.6 9500.5l41.38 6.13c223.62,-2.01 1328.12,9.62 1384.51,-2.12 10.34,-167.36 0.92,-366.55 0.92,-537.4l0 -1072.03c0,-84.15 4.53,-423.13 -1.52,-503.87l-5.72 -22.93 0.82 2134.84 -1420.39 -2.63z"/>
  </g>
 </g>
</svg>
