<?xml version="1.0" encoding="UTF-8"?>
<!DOCTYPE svg PUBLIC "-//W3C//DTD SVG 1.1//EN" "http://www.w3.org/Graphics/SVG/1.1/DTD/svg11.dtd">
<!-- Creator: CorelDRAW 2020 (64 Bit) -->
<svg xmlns="http://www.w3.org/2000/svg" xml:space="preserve" width="283.803mm" height="60.6845mm" version="1.1" style="shape-rendering:geometricPrecision; text-rendering:geometricPrecision; image-rendering:optimizeQuality; fill-rule:evenodd; clip-rule:evenodd"
viewBox="0 0 12580.66 2690.08"
 xmlns:xlink="http://www.w3.org/1999/xlink"
 xmlns:xodm="http://www.corel.com/coreldraw/odm/2003">
 <defs>
  <style type="text/css">
   <![CDATA[
    .str0 {stroke:#3A4153;stroke-width:3.38;stroke-miterlimit:22.9256}
    .fil5 {fill:black}
    .fil13 {fill:#019999}
    .fil6 {fill:#02FEFC}
    .fil0 {fill:#3A4153}
    .fil11 {fill:#475B6D}
    .fil2 {fill:#8CB8FE}
    .fil4 {fill:#A1A1A1}
    .fil10 {fill:#B4B4EE}
    .fil3 {fill:silver}
    .fil7 {fill:#FBFBFB}
    .fil1 {fill:#FDFDFD}
    .fil9 {fill:#FDFDFE}
    .fil12 {fill:white}
    .fil8 {fill:url(#id0)}
   ]]>
  </style>
  <linearGradient id="id0" gradientUnits="userSpaceOnUse" x1="3268.94" y1="1350.19" x2="5885.35" y2="1350.19">
   <stop offset="0" style="stop-opacity:1; stop-color:#8383F9"/>
   <stop offset="1" style="stop-opacity:1; stop-color:#00007A"/>
  </linearGradient>
 </defs>
 <g id="Camada_x0020_1">
  <metadata id="CorelCorpID_0Corel-Layer"/>
  <g id="_2444507338704">
   <path class="fil0" d="M11042.98 1909.7l-100.2 -131.46 176.19 -132.24c164.66,-128.5 105.18,-116.7 313.12,-112.87 10.63,151.44 5.39,804.73 1.88,993.56l-206.56 2.12 -0.02 -767.73c-15.83,11.66 -3.71,3.83 -18.78,15.79 -11.05,8.77 -13.87,12.02 -24.01,20.8 -16.82,14.58 -27.2,23.48 -45.69,39.14 -20.39,17.27 -30.38,23.23 -47.6,38.09 -27.69,23.9 -17.14,19.83 -48.34,34.79zm649.82 -377.82l717.89 2.93c-6.24,172.82 -4.77,141.09 -68.92,286.26 -34.49,78.05 -66.64,158.76 -102.78,239.07 -36.95,82.11 -175.37,425.25 -212.14,468.42l-210.52 -0.33c22.27,-90.99 138.39,-305.83 183.97,-407.71 59.49,-132.94 131.96,-277.64 182.56,-409.28l-488.95 -0.41 -1.12 -178.96zm-1176.2 996.46l-227.29 -0.07 -339.28 -995.2 209.63 -0.43c46.02,107.96 142.68,437.6 187.39,583.08 19.57,63.69 32.77,145.89 54.29,203.18 1.54,-2.3 3.31,-8.87 3.83,-7.36 4.77,13.95 5.92,-12.48 6.93,-15.35l106.81 -373.24c27.99,-91.19 93.68,-325.83 129.53,-391.33l205.15 1.09c-22.75,108.41 -280.23,830.85 -336.98,995.63zm674.35 -2396.72l0.43 1059.99c-30.73,25.68 -190.62,13.27 -231.65,8.35l3.88 -1081.59 197.01 -0.79c51.76,2.02 16.18,-1.17 30.33,14.05zm142.99 1068.63c4.83,-65.74 325.48,-934.47 374.93,-1084.15l280.05 -0.19 377.53 1084.12 -239.98 -0.24 -83.69 -255.81 -389.58 -1.02 -82.39 256.6 -236.87 0.69zm-538.08 -1069.58l-1.37 171.86c-30.72,24.9 -240.5,12.14 -289.55,5.46l-3.02 892.25c-60.4,12.9 -183.76,16.92 -230.98,-3.19l-1.25 -885.57 -283.15 -1.65c-18.21,-41.76 -11.64,-133.89 -5.57,-191.96l783.97 -0.31c52.92,1.6 16.49,-0.92 30.93,13.1zm-925.54 134.49l0.08 2096.06c0.79,350.74 -16.77,295.43 466.76,294.17 79.3,-0.21 2115.9,14.97 2176.47,-10.33 81.59,-34.07 65.89,-118.65 65.68,-208.98l-0.13 -2170.92c-0.92,-313.34 23.44,-261.9 -659.28,-262.21l-1903.57 0.05c-161.36,0.25 -146.65,113.66 -146.02,262.16z"/>
   <path class="fil1" d="M11710.84 754.31c13.58,-59.88 123.45,-433.12 141.45,-457.36l140.63 455.94 -282.08 1.41zm-376.91 445.96l236.87 -0.69 82.39 -256.6 389.58 1.02 83.69 255.81 239.98 0.24 -377.53 -1084.12 -280.05 0.19c-49.46,149.68 -370.11,1018.41 -374.93,1084.15z"/>
   <path class="fil2" d="M10516.6 2528.35c56.76,-164.78 314.23,-887.22 336.98,-995.63l-205.15 -1.09c-35.85,65.5 -101.54,300.13 -129.53,391.33l-106.81 373.24c-1.01,2.86 -2.16,29.3 -6.93,15.35 -0.52,-1.51 -2.29,5.07 -3.83,7.36 -21.51,-57.29 -34.71,-139.49 -54.29,-203.18 -44.71,-145.49 -141.36,-475.13 -187.39,-583.08l-209.63 0.43 339.28 995.2 227.29 0.07z"/>
   <polygon class="fil1" points="9986.53,309.85 10269.68,311.5 10270.93,1197.07 10498.34,1197.97 10501.25,306.69 10794.48,302.55 10795.86,130.69 9987.11,125.39 "/>
   <path class="fil2" d="M11693.91 1710.84l488.95 0.41c-50.6,131.65 -123.07,276.35 -182.56,409.28 -45.59,101.87 -161.71,316.71 -183.97,407.71l210.52 0.33c36.78,-43.17 175.19,-386.31 212.14,-468.42 36.14,-80.31 68.28,-161.02 102.78,-239.07 64.15,-145.16 62.69,-113.44 68.92,-286.26l-717.89 -2.93 1.12 178.96z"/>
   <path class="fil2" d="M11042.98 1909.7c31.19,-14.97 20.64,-10.9 48.34,-34.79 17.21,-14.86 27.21,-20.82 47.6,-38.09 18.49,-15.66 28.87,-24.56 45.69,-39.14 10.13,-8.78 12.96,-12.03 24.01,-20.8 15.06,-11.96 2.95,-4.13 18.78,-15.79l0.02 767.73 206.56 -2.12c3.5,-188.82 8.74,-842.12 -1.88,-993.56 -207.93,-3.83 -148.45,-15.63 -313.12,112.87l-176.19 132.24 100.2 131.46z"/>
   <polygon class="fil1" points="11191.38,1191.62 11190.95,131.63 10966.22,125.48 10967.55,1195.53 "/>
   <path class="fil0" d="M11710.84 754.31l282.08 -1.41 -140.63 -455.94c-18,24.24 -127.87,397.48 -141.45,457.36z"/>
   <path class="fil0 str0" d="M11191.38 1191.62l-223.83 3.91 -1.33 -1070.05 224.72 6.16c-14.15,-15.22 21.42,-12.03 -30.33,-14.05l-197.01 0.79 -3.88 1081.59c41.03,4.92 200.92,17.32 231.65,-8.35z"/>
   <path class="fil0 str0" d="M9986.53 309.85l0.58 -184.46 808.74 5.3c-14.43,-14.02 22,-11.49 -30.93,-13.1l-783.97 0.31c-6.07,58.07 -12.63,150.2 5.57,191.96z"/>
   <path class="fil0 str0" d="M10270.93 1197.07c47.21,20.12 170.58,16.1 230.98,3.19l3.02 -892.25c49.05,6.68 258.84,19.44 289.55,-5.46l-293.23 4.14 -2.91 891.28 -227.41 -0.9z"/>
  </g>
  <g id="_2444503372320">
   <rect class="fil3" x="6570.64" width="2659.73" height="2659.73"/>
   <g>
    <path class="fil4" d="M6570.64 2123.31l0 536.42 1762.44 0c-12.24,-67.82 -178.24,-76.72 -109.69,-366 24.06,-101.54 165.05,-562.63 156.02,-620.68 -5.89,-37.84 -208.97,-214.57 -322.49,-179.37 -96.5,29.91 -236.74,129.59 -307.7,224.17 -20.26,27.01 -29.5,48.15 -51.33,74.97 -51.53,63.32 -136.57,149.54 -199.22,195.02 -166.63,120.94 -265.24,215.6 -531.3,257.7 -90.28,14.28 -139.53,10.59 -223.01,-20.26 -43.83,-16.2 -52.88,-27.44 -86.67,-48.66 -42.33,-26.57 -57.65,-44.59 -87.04,-53.31z"/>
    <path class="fil5" d="M7286.71 987.06l0.39 40.57c51.06,32.52 393.46,412.93 426.4,422.31 212.33,-24.22 386.4,-164.88 505.95,-259.24l0.76 -181.71 177.98 -7.95c19.95,-45.74 62.24,-94.92 91.57,-151.87 26.16,-50.79 52.28,-112.27 68.19,-171.24 42.05,-155.85 26.26,-283.47 -60.52,-386.14 -49.55,-36.78 -80.88,-74.02 -174.07,-90.92 -211.59,-38.36 -441.25,75.74 -596.52,186.5 -223.74,159.6 -347.59,339.79 -440.12,599.68z"/>
    <path class="fil4" d="M6570.64 1438.59c29.95,-18.98 23.58,-15.46 44.1,-44.35 44.67,-62.91 48.46,-84.08 109.99,-149.22 16.97,-17.97 5.3,-3.68 19.78,-21.71 97.05,-120.74 51.93,-87.28 190.63,-204 57.97,-48.79 89.29,-80.93 122.97,-149.23 41.23,-83.6 143.43,-254.11 203.31,-314.82 52.2,-52.93 37.86,-75.23 126.16,-135.07 35.36,-23.97 75.1,-104.76 129.29,-139.48 76.22,-48.84 188.36,-156.06 309.28,-217.1 72.78,-36.74 101.19,-34.05 118.68,-63.61l-1374.18 0 0 1438.59z"/>
    <path class="fil6" d="M8219.44 1190.7l1.3 87.54 163.73 2.66 241.81 3.02 -36.65 133.63 -233.43 997.18 301.11 -2.07c38.31,-197.27 93.15,-416.46 140.31,-609.46 25.65,-104.96 46.19,-204.29 70.58,-306.06 33.88,-141.4 30.79,-198.39 31.04,-349.7l-1.6 -137.84c-115.07,-10.39 -427.22,19.11 -499.46,-8.55l-177.98 7.95 -0.76 181.71z"/>
    <path class="fil4" d="M9230.38 1039.3l0 -1039.3 -595.65 0c93.52,143.02 192.24,150.66 167.25,395.53 -14.62,143.25 -122.02,406.07 -82.33,447.42 1.25,1.31 3.69,3.26 5.15,4.39l336.81 122.93c25.99,11.84 50.3,24.33 77.62,34.18 13.74,4.96 26.62,8.13 46.43,15.76 34.43,13.25 4.75,7.43 44.73,19.1z"/>
    <path class="fil5" d="M6832.17 1649.7c-14.47,230.02 121.2,322.46 343.48,243.68 126.94,-44.99 293.52,-172.83 345.21,-283l-324.21 -335.17c-26.96,-29.89 -19.71,-31.59 -58.37,-36.58 -91.45,69.26 -120.48,86.41 -188.6,169.12 -50.22,60.97 -100.78,143.24 -117.51,241.96z"/>
    <path class="fil5" d="M8657.31 2412.67c-28.3,14.73 -66.87,9.01 -103.38,9.17l-36.23 135.23 297.1 0.05 235.57 -1011.93c16.88,-73.72 15.48,-313.11 8.47,-396.98l-159.6 -0.78c-0.25,151.32 2.84,208.3 -31.04,349.7 -24.39,101.78 -44.93,201.1 -70.58,306.06 -47.16,193 -102,412.19 -140.31,609.46z"/>
    <path class="fil4" d="M8873 2659.73l357.38 0 0 -1090.91c-76.79,92.43 -149.95,401.16 -192.05,533.8l-165.33 557.11z"/>
    <path class="fil7" d="M7286.71 987.06c92.53,-259.89 216.39,-440.08 440.12,-599.68 155.27,-110.76 384.93,-224.87 596.52,-186.5 93.19,16.89 124.52,54.13 174.07,90.92 10.23,-13.24 20.75,7.22 -8.99,-36.67 -68.93,-101.68 -249.14,-129.93 -378.13,-108.07 -358.28,60.71 -737.07,405.83 -842.5,759.11 -5.12,17.15 -33.93,128.85 18.91,80.9z"/>
    <path class="fil7" d="M6832.17 1649.7c16.73,-98.72 67.29,-180.99 117.51,-241.96 68.12,-82.71 97.14,-99.86 188.6,-169.12 0.7,-29.19 10.33,-19.37 -14.3,-37.92 -32.69,-24.62 -64.64,16.12 -113,60.26 -120.53,110.02 -269.5,313.15 -194.95,487.93 -1.99,-41.25 -5.81,-66.78 16.14,-99.19z"/>
    <polygon class="fil5" points="8589.63,1417.55 8626.28,1283.92 8384.47,1280.9 8383.37,1415.75 "/>
   </g>
  </g>
  <g id="_2444503314000">
   <rect class="fil8" x="3268.93" y="20.32" width="2616.42" height="2659.73"/>
   <path class="fil9" d="M4670.61 1277.26c23.39,21.36 144.15,11.07 175.79,11.04l273.54 -803.98 -0.57 793.15 25.14 10.51 150.8 -1.02 -0.05 -1002.83 -80.96 -3.99 -176.59 0.2 -277.3 801.86c-20.64,-105.45 -156.4,-475.35 -207.14,-616.33l-53.53 -154.61c-16.03,-35.68 -0.14,-19.8 -26.73,-31.75l-245.14 0.16 0 1008.81 165.56 -2.31 3.35 -796.17 273.83 787.25z"/>
   <path class="fil10" d="M4613.57 1841.45c136.47,-2.75 248.13,38.2 228.26,193.68 -17.08,133.69 -126.91,158.57 -258.46,148.32 -51.86,-6.23 -100.62,-32.24 -143.39,-49.66l-39.76 130.67c44.39,37.05 132.07,44.81 193.54,59.34 233.83,32.61 408.59,-76.65 416.69,-297.97 9.33,-254.86 -165.7,-331.23 -408.33,-307.39l6.61 -199.11 368.23 -2.04 -0.03 -135.83 -313.09 0.48 -214.69 1.72 -9.46 490.7c59.52,-16.07 105.45,-30.76 173.89,-32.92z"/>
   <path class="fil10" d="M4085.44 2241.63l305.33 -858.55 -162.38 -1.74 -217.69 609.07 -38.71 131.99c-12.7,-14.62 1.43,8.06 -15.52,-22.26l-248.58 -717.83 -176.75 -0.39 341.02 932.44 179.56 -1.85c3.48,-9.78 8.2,-28.29 11.26,-35.29l17.01 -28.72c0.79,-4.16 3.45,-4.75 5.46,-6.88z"/>
   <path class="fil9" d="M3231.81 323.24l0 452.52c64.16,27.33 129.5,58.9 195.22,88.59 60.76,27.44 143.74,56.48 158.79,123.56 19.77,88.17 -40.91,151.73 -111.35,167.78 -83.51,19.03 -168.01,-8.79 -242.65,-25.57l0 159.77c162.03,33.34 383.2,26.19 475.26,-77.27 82.61,-92.82 119.29,-307.54 -39.63,-422.96 -91.55,-66.48 -346.39,-120.24 -362.49,-230.68 -13.89,-95.31 66.32,-141.55 155.33,-142.26 98.43,-0.79 161.41,37.72 239.62,58.79l36.17 -157.54c-217.4,-41.94 -288.91,-92.27 -504.26,5.28z"/>
   <path class="fil10" d="M5891.54 2194.58l0 -269.08 -17.16 -17.19c-45.02,-45.75 -67.69,-55.28 -138.59,-73.07 29.47,-13.74 65.2,-25.75 90.02,-41.53 44.15,-28.06 32.01,-35.56 65.73,-69.69l0 -221.31c-72.81,-73.12 -89.66,-115.64 -228.81,-128.97 -138.51,-13.28 -210.19,16.27 -322.95,45.18l30.03 138.14c108.46,-30.97 323.7,-106.06 367.58,31.31 26.22,82.1 -24.79,129.29 -79.28,152.64 -67.55,28.95 -146.31,20.96 -221.51,26.96l-0.01 121.08c53.99,5.02 393.12,-22.45 305.54,214.79 -65.69,177.96 -339.59,60.47 -399.38,48.27l-32.68 134.28c133.34,51.38 345.01,81.57 482.25,3.12 44.51,-25.43 64.59,-62.68 99.21,-94.93z"/>
   <path class="fil9" d="M5891.54 1307.95l0 -146.13c-208.25,-8.4 -292.66,-159.54 -292.69,-372.73 -0.04,-210.08 85.28,-368.04 292.69,-372.43l0 -146.31c-310.37,1.93 -479.32,209.22 -478.71,518.82 0.33,163.82 43.56,274.62 124.01,375.27 71.91,89.96 187.63,142.95 354.7,143.51z"/>
   <path class="fil9" d="M4000.44 1287.83l63.15 0.64c0,-42.4 17.77,-970.54 -13,-1007.95l-164.34 0.52 0 1005.72 114.19 1.07z"/>
   <path class="fil10" d="M5154.9 2326.46c122.57,-19.85 122.17,-187.1 0,-207.25 -165.54,10.84 -161.34,199 0,207.25z"/>
  </g>
  <g id="_2444503318752">
   <rect class="fil11" y="30.34" width="2659.73" height="1755.42"/>
   <path class="fil12" d="M635.21 2039.65l78.36 -0.02 -0.02 12.11 -0.64 94.57 -0.03 82.75 0.6 94.57 0.09 13.17 -78.34 0.02 -0.02 -297.17zm1197.05 296.37l-35.48 -0.1c-24.35,-66.23 -5.02,-211.32 -7.58,-292.36 125.82,-7.46 79.18,-16.01 160.64,126.13 2.05,3.58 12.22,20.48 14.02,23 1.89,2.66 3.88,5.33 5.87,7.93 2.09,2.73 4.61,5.54 6.62,8.02l14.73 16.34c0,-55.22 -12.42,-140.76 6.67,-183.5l47.55 -2.91 0 298.25 -95.71 0.15 -100.14 -194.22 -17.19 193.27zm-705.13 -199.07c-1.68,46.82 1.84,97.2 0.12,141.53 -2.42,62.17 0.23,47.21 -20.59,55.7 -56.63,23.1 -32.07,-17.22 -33.49,-20.84 -5.35,-13.58 -2.37,-238.09 -3.07,-273.69l88.36 0c51.86,24.86 67.54,134.17 99.7,182.41l71.44 -183.03 103.04 0.6 0.83 297.17 -78.47 0.02 0.77 -200.36c-43.01,54.42 -51.63,165.44 -102.75,206.65 -82.14,-10.64 -49.2,-82.83 -125.89,-206.16zm1044.77 -37.91c28.42,73.17 183.52,51.25 154.88,172.95 -17.57,74.66 -130.65,80.93 -171.3,72.41 -70.91,-14.85 -38.69,6.57 -45.6,-44.41 26.36,-19.06 -7.08,-5.79 30.66,-11.36 55.53,-8.18 51.86,12.77 105.45,-7.13 -2.37,-57.95 23.7,-22.14 -82.97,-76.48 -117.68,-59.95 -60.72,-192.12 95.77,-169.87 50.75,7.22 38.31,1.09 53.97,40.24 -36.1,22.31 -124.85,4.73 -140.88,23.64zm-659.1 -59.37l190.12 2.15c31.94,10.65 5.85,-18.68 20.9,15.27 29.68,66.95 -54.66,12.68 -131.87,41.91l-1.99 64.29c46.25,0.53 104.24,-13.91 120.92,18.49 -10.1,34.97 25.21,19.06 -42.57,27.25 -12.29,1.49 -59.29,-1.44 -76.8,-1.63l3.92 68.95c35,10.32 38.49,2.68 72.03,5.01 78.3,5.45 46.11,-9.27 63.38,30.45 -13.13,27.01 -6.44,27.36 -99.15,25.56 -39.67,-0.77 -79.19,-0.59 -118.85,-0.55l-0.02 -297.16zm-721.06 0l216.86 -0.03c-1.94,66.65 34.21,53.69 -134.68,50.55l4.1 74.82c14.55,-0.25 70.89,-5.48 78.56,-4.06 43.19,8.03 31.84,4.21 38.85,46.93l-123.07 0.1 6.72 74.18c179.89,0 114.38,-10.73 132.43,29.65 -15.48,30.55 -1.52,17.43 -41.01,25.25l-175.87 -0.73 -2.89 -296.67zm-288.4 231.59c-4.14,-39.86 -38.3,-44.65 -80.48,-63.59 -140.46,-63.05 -60.54,-223.82 137.57,-160.26l0.05 44.71c-51.97,-2.07 -77.39,-21.73 -122.8,6.92 5.45,46.86 28.09,33.92 141.67,113.25 7.62,113.2 -66.57,146.99 -162.71,133.13 -64.27,-9.26 -46.43,-4.24 -55.74,-45.43l19.81 -8.68c49.79,-12.43 73.46,11.45 122.64,-20.06zm-503.35 418.83l2659.73 0 0 -916.4 -2659.73 1.14 0 915.26z"/>
   <path class="fil12" d="M1093.84 928.74c-49.97,404.47 -532.72,312.84 -463.74,-138.58 58.91,-385.52 516.82,-291.09 463.74,138.58zm146.23 59.1c45.99,-251.37 -51.32,-491.9 -258.61,-543.11 -600.51,-148.36 -669.08,742.32 -231.9,844.75 264.83,62.05 450.04,-80.42 490.51,-301.64z"/>
   <path class="fil12" d="M1926.83 605.69c25.49,-25.77 36.84,-76.66 53.63,-114.33 -93.98,-88.76 -703.92,-168.52 -695.32,390.17 8.91,578.73 684.18,418.86 700.75,354.56l-4.83 -408.27 -297.31 1.89 0.07 119.08 153.85 0.4 -1.11 216.91c-150.91,19.7 -223.8,32.11 -317.01,-66.63 -190.34,-201.63 -38.96,-729.47 407.29,-493.77z"/>
   <path class="fil12" d="M2659.73 1246.31l0 -254.36c-38.71,60.71 -32.01,100.87 -88.43,144.07 -45.71,34.99 -117.79,55.81 -191.5,38.16 -245.17,-58.69 -234.39,-555.56 -5.65,-614.25 67.57,-17.34 144.07,-0.62 185.67,31.23 60.62,46.41 61.25,88.02 99.92,151.58l0 -259.99c-335.87,-134.75 -620.39,23.43 -618.33,386.95 1.42,252.91 146.69,436.69 393.74,436.12 108.85,-0.25 145.27,-30.48 224.59,-59.51z"/>
   <polygon class="fil12" points="-0,1289.06 509.15,1289.36 507.7,1168.88 147.91,1169.55 148.48,446.55 -0,444.9 "/>
   <path class="fil13" d="M1127.13 2136.94c76.7,123.34 43.75,195.52 125.89,206.16 51.11,-41.21 59.73,-152.23 102.75,-206.65l-0.77 200.36 78.47 -0.02 -0.83 -297.17 -103.04 -0.6 -71.44 183.03c-32.16,-48.23 -47.84,-157.55 -99.7,-182.41l-88.36 0c0.7,35.6 -2.28,260.11 3.07,273.69 1.43,3.62 -23.14,43.94 33.49,20.84 20.82,-8.49 18.16,6.47 20.59,-55.7 1.73,-44.34 -1.8,-94.71 -0.12,-141.53z"/>
   <path class="fil13" d="M1849.45 2142.75l100.14 194.22 95.71 -0.15 0 -298.25 -47.55 2.91c-19.09,42.75 -6.67,128.29 -6.67,183.5l-14.73 -16.34c-2.02,-2.48 -4.53,-5.29 -6.62,-8.02 -1.99,-2.59 -3.98,-5.26 -5.87,-7.93 -1.8,-2.52 -11.96,-19.42 -14.02,-23 -81.46,-142.14 -34.82,-133.59 -160.64,-126.13 2.57,81.04 -16.77,226.13 7.58,292.36l35.48 0.1 17.19 -193.27z"/>
   <path class="fil13" d="M794.64 2336.33l175.87 0.73c39.48,-7.82 25.53,5.3 41.01,-25.25 -18.05,-40.38 47.45,-29.65 -132.43,-29.65l-6.72 -74.18 123.07 -0.1c-7.01,-42.72 4.34,-38.9 -38.85,-46.93 -7.67,-1.42 -64.01,3.8 -78.56,4.06l-4.1 -74.82c168.89,3.14 132.74,16.1 134.68,-50.55l-216.86 0.03 2.89 296.67z"/>
   <path class="fil13" d="M1512.82 2336.81c39.66,-0.04 79.18,-0.22 118.85,0.55 92.72,1.8 86.02,1.45 99.15,-25.56 -17.27,-39.72 14.92,-25 -63.38,-30.45 -33.54,-2.33 -37.03,5.31 -72.03,-5.01l-3.92 -68.95c17.52,0.19 64.51,3.12 76.8,1.63 67.78,-8.19 32.48,7.72 42.57,-27.25 -16.68,-32.41 -74.67,-17.97 -120.92,-18.49l1.99 -64.29c77.2,-29.23 161.55,25.04 131.87,-41.91 -15.05,-33.95 11.04,-4.61 -20.9,-15.27l-190.12 -2.15 0.02 297.16z"/>
   <path class="fil13" d="M2171.9 2099.03c16.02,-18.92 104.78,-1.33 140.88,-23.64 -15.66,-39.15 -3.23,-33.03 -53.97,-40.24 -156.49,-22.25 -213.46,109.92 -95.77,169.87 106.66,54.34 80.59,18.53 82.97,76.48 -53.58,19.9 -49.92,-1.05 -105.45,7.13 -37.75,5.56 -4.3,-7.7 -30.66,11.36 6.91,50.97 -25.32,29.55 45.6,44.41 40.65,8.52 153.73,2.25 171.3,-72.41 28.64,-121.7 -126.46,-99.78 -154.88,-172.95z"/>
   <path class="fil13" d="M503.35 2271.24c-49.18,31.51 -72.85,7.63 -122.64,20.06l-19.81 8.68c9.31,41.19 -8.52,36.16 55.74,45.43 96.14,13.86 170.33,-19.93 162.71,-133.13 -113.58,-79.33 -136.22,-66.39 -141.67,-113.25 45.41,-28.65 70.83,-8.99 122.8,-6.92l-0.05 -44.71c-198.11,-63.55 -278.04,97.21 -137.57,160.26 42.18,18.93 76.33,23.73 80.48,63.59z"/>
   <polygon class="fil13" points="635.23,2336.81 713.57,2336.8 713.48,2323.62 712.88,2229.06 712.91,2146.31 713.55,2051.74 713.57,2039.63 635.21,2039.65 "/>
  </g>
 </g>
</svg>
